<?xml version="1.0" encoding="iso-8859-1"?>
<!-- Generator: Adobe Illustrator 19.0.0, SVG Export Plug-In . SVG Version: 6.00 Build 0)  -->
<svg xmlns="http://www.w3.org/2000/svg" xmlns:xlink="http://www.w3.org/1999/xlink" version="1.1" id="Layer_1" x="0px" y="0px" viewBox="0 0 512.001 512.001" style="enable-background:new 0 0 512.001 512.001;" xml:space="preserve" width="512px" height="512px">
<g>
	<g>
		<path d="M505.22,95.544c-6.269-12.53-18.866-20.314-32.877-20.314s-26.608,7.784-32.876,20.318    c-1.317,2.634-2.495,5.03-3.58,7.239c-5.087,10.35-7.628,15.522-13.141,22.103c-10.145-4.241-21.546-3.738-31.16,1.516    c-19.75,10.793-19.727,26.953-19.691,51.414c0.006,4.247,0.013,9.06-0.052,14.425c-0.034,2.791-2.309,5.133-5.07,5.221    l-1.993,0.063c-2.082,0.069-4.138-1.582-4.161-3.666l-0.048-33.826c-0.15-13.331-8.032-25.631-20.082-31.34    c-16.761-7.941-34.708-0.243-40.306,7.892c-3.424,2.351-7.727,4.52-9.826,4.581c-0.216-0.102-0.387-0.191-0.519-0.266    c-0.466-1.749-0.835-5.66-1.355-9.318c-3.481-24.484-38.395-27.321-53.305-28.533c-16.61-1.35-36.324-1.422-61.005-0.209    c-4.772,0.234-8.87-1.634-12.216-5.127l-19.575-20.425c-8.025-8.372-20.282-11.318-31.229-7.505    c-10.954,3.815-18.729,13.745-19.808,25.294c-0.291,3.113-0.177,4.353-1.72,5.375c-0.946,0.628-1.398,0.448-2.388,0.121    c-17.919-5.9-37.74,0.013-49.324,14.719c-57.329,72.764-43.327,164.847,0.134,218.201c35.125,43.12,83.877,56.161,128.132,34.036    c5.686-2.846,12.575,1.287,12.362,7.969c-0.685,21.491,12.316,42.099,33.118,52.502l24.371,12.8    c8.943,4.472,19.371,4.012,27.891-1.254c15.112-9.337,13.597-24.483,13.597-31.485c0-6.138,6.417-10.107,11.909-7.361l16.83,8.414    c16.95,8.476,37.028-3.226,38.022-22.137c0.145-2.752,0.963-9.395,5.426-11.626c28.111-14.055,29.503-19.406,52.765,8.315    c9.685,11.542,20.662,24.624,37.057,25.212c25.749,0.906,52.295-32.796,33.905-62.255c-1.856-3.588-5.926-7.706-8.459-9.306    c-4.186-4.988-9.328-12.921-9.328-18.476c0-7.309,3.058-14.368,8.392-19.369c17.223-16.151,21.195-42.731,9.884-66.142    c-8.074-16.712,1.044-28.253,13.804-41.605c5.436-5.69,15.306-15.093,10.798-27.615c1.939-2.849,3.807-5.943,5.5-9.249    C514.237,134.919,514.651,114.408,505.22,95.544z M465.366,152.164c-1.78,0.818-3.419,1.952-4.832,3.364    c-9,8.999-6.884,17.243-4.646,21.555c-12.334,14.571-27.323,39.156-12.043,70.782c4.098,8.481,4.865,20.195-2.657,27.249    c-12.039,11.29-18.945,27.229-18.945,43.733c0,10.896,4.199,22.304,12.482,33.909c3.87,5.422,7.524,9.649,10.938,12.657    c0.874,2.238,0.433,4.888-1.332,6.709c-1.806,1.863-3.05,2.749-3.726,3.151c-3.064-1.76-8.938-8.761-12.554-13.07    c-7.49-8.926-15.979-19.043-27.518-25.499c-25.806-14.437-45.771-1.219-65.767,8.779c-11.371,5.686-19.21,16.111-22.371,29.367    l-8.037-4.018c-27.5-13.747-59.842,6.029-60.238,36.678l-17.526-9.376c-9.044-4.523-14.942-13.19-14.675-21.568    c1.018-31.923-31.794-53.068-60.123-38.904c-29.938,14.97-62.782,5.527-87.858-25.257c-35.063-43.043-46.252-117.47,0.206-176.436    c2.975-3.776,7.936-5.216,12.646-3.664c11.363,3.746,22.369,1.9,31.281-4.006c7.932-5.257,13.42-13.257,15.482-22.378    l14.288,14.908c10.044,10.481,23.526,16.094,37.966,15.376c50.16-2.459,72.571,1.23,80.141,4.208    c1.231,9.751,3.518,23.852,21.661,31.643c7.12,3.056,18.967,4.853,34.988-3.937c4.256-2.335,9.383-5.81,13.266-9.353    c1.908,0.456,1.288-0.306,1.692,35.475c0.114,10.055,4.175,19.424,11.437,26.38c8.514,8.155,18.026,10.571,28.839,10.229    c20.722-0.659,37.153-17.436,37.408-38.195c0.208-17.032-0.364-32.6,1.084-36.132c1.295-1.031,2.477-1.418,3.925-0.635    l8.071,4.373c6.498,3.521,14.539,2.35,19.764-2.876c16.094-16.096,19.998-24.041,27.778-39.869c1.055-2.148,2.2-4.475,3.479-7.033    c1.238-2.476,4.772-2.468,6.005-0.002C484.475,128.745,471.706,145.465,465.366,152.164z" fill="#FFFFFF"/>
	</g>
</g>
<g>
</g>
<g>
</g>
<g>
</g>
<g>
</g>
<g>
</g>
<g>
</g>
<g>
</g>
<g>
</g>
<g>
</g>
<g>
</g>
<g>
</g>
<g>
</g>
<g>
</g>
<g>
</g>
<g>
</g>
</svg>
